<svg xmlns="http://www.w3.org/2000/svg" xmlns:xlink="http://www.w3.org/1999/xlink" width="500" zoomAndPan="magnify" viewBox="0 0 375 374.999991" height="500" preserveAspectRatio="xMidYMid meet" version="1.2"><defs><clipPath id="4d2130ac9c"><path d="M 23.148438 3 L 370.398438 3 L 370.398438 359 L 23.148438 359 Z M 23.148438 3 "/></clipPath></defs><g id="5c35fbd110"><g clip-rule="nonzero" clip-path="url(#4d2130ac9c)"><path style=" stroke:none;fill-rule:nonzero;fill:#000000;fill-opacity:1;" d="M 370.398438 276.566406 L 370.398438 281.109375 C 367.390625 292.726562 355.363281 296.066406 345.035156 298.035156 C 342.550781 298.511719 340.394531 298.824219 338.5625 298.972656 C 334.238281 299.324219 329.921875 299.6875 325.605469 300.0625 C 320.019531 300.554688 314.507812 301.480469 309.078125 302.847656 C 305.527344 303.742188 302.222656 305.183594 299.164062 307.175781 C 293.933594 310.578125 291.957031 315.421875 293.238281 321.714844 C 294.175781 326.289062 294.703125 329.414062 294.820312 331.09375 C 295.519531 341.089844 289.832031 348.96875 281.050781 353.230469 C 275.753906 355.804688 270.164062 357.402344 264.277344 358.023438 C 261.980469 358.265625 259.691406 358.578125 257.410156 358.964844 L 248.824219 358.964844 C 245.851562 358.425781 242.386719 358.375 239.929688 358.03125 C 227.066406 356.25 214.777344 352.527344 203.0625 346.863281 C 191.1875 341.121094 180.179688 333.972656 168.351562 328.128906 C 159.164062 323.585938 134.773438 313.992188 129.03125 328.195312 C 127.632812 331.65625 128.257812 336.828125 128.277344 340.773438 C 128.285156 342.832031 128.019531 344.421875 127.480469 345.554688 C 124.601562 351.539062 116.214844 351.082031 110.851562 349.574219 C 95.59375 345.285156 81.644531 334.234375 71.109375 322.84375 C 46.101562 295.8125 31.042969 260.324219 25.621094 224.011719 C 23.683594 211.050781 23.128906 198.109375 23.359375 185.015625 C 23.429688 180.765625 23.644531 176.617188 23.996094 172.574219 C 26.089844 148.683594 31.820312 124.964844 41.191406 101.414062 C 48.773438 82.34375 58.988281 65.019531 71.828125 49.433594 C 97.117188 18.726562 135.253906 0.289062 175.230469 3.800781 C 226.386719 8.292969 264.355469 46.136719 270.636719 96.667969 C 271.640625 104.765625 271.976562 112.367188 271.640625 119.480469 C 271.480469 122.800781 271.074219 127.183594 270.417969 132.625 C 269.242188 142.355469 267.078125 152.5 265.335938 162.421875 C 264.472656 167.355469 263.9375 171.472656 263.734375 174.769531 C 263.535156 177.925781 263.460938 181.085938 263.507812 184.25 C 263.933594 216.003906 286.84375 236.820312 315.652344 244.875 C 331.433594 249.28125 350.957031 251.4375 363.894531 264.953125 C 366.945312 268.136719 369.113281 272.007812 370.398438 276.566406 Z M 159.242188 138.726562 C 160.046875 138.75 160.847656 138.726562 161.648438 138.652344 C 162.449219 138.578125 163.246094 138.457031 164.039062 138.289062 C 164.832031 138.121094 165.617188 137.90625 166.394531 137.644531 C 167.167969 137.382812 167.933594 137.078125 168.683594 136.726562 C 169.4375 136.375 170.171875 135.976562 170.894531 135.539062 C 171.613281 135.097656 172.316406 134.617188 173 134.097656 C 173.679688 133.574219 174.339844 133.011719 174.976562 132.410156 C 175.617188 131.8125 176.226562 131.175781 176.816406 130.5 C 177.402344 129.828125 177.960938 129.125 178.492188 128.382812 C 179.019531 127.644531 179.519531 126.878906 179.988281 126.082031 C 180.457031 125.285156 180.894531 124.460938 181.296875 123.613281 C 181.699219 122.765625 182.066406 121.894531 182.398438 121.003906 C 182.730469 120.113281 183.023438 119.203125 183.285156 118.277344 C 183.542969 117.351562 183.765625 116.414062 183.949219 115.464844 C 184.128906 114.511719 184.273438 113.554688 184.382812 112.585938 C 184.488281 111.621094 184.554688 110.648438 184.582031 109.675781 C 184.609375 108.703125 184.597656 107.730469 184.542969 106.757812 C 184.492188 105.785156 184.402344 104.820312 184.273438 103.859375 C 184.140625 102.902344 183.972656 101.953125 183.765625 101.015625 C 183.558594 100.074219 183.316406 99.152344 183.035156 98.242188 C 182.75 97.335938 182.433594 96.445312 182.078125 95.578125 C 181.726562 94.707031 181.335938 93.863281 180.914062 93.039062 C 180.488281 92.21875 180.035156 91.421875 179.546875 90.65625 C 179.058594 89.886719 178.539062 89.152344 177.992188 88.449219 C 177.441406 87.742188 176.867188 87.074219 176.265625 86.4375 C 175.660156 85.804688 175.035156 85.207031 174.382812 84.648438 C 173.730469 84.085938 173.054688 83.566406 172.359375 83.089844 C 171.664062 82.609375 170.953125 82.175781 170.222656 81.78125 C 169.492188 81.386719 168.746094 81.039062 167.984375 80.734375 C 167.226562 80.429688 166.453125 80.171875 165.671875 79.960938 C 164.890625 79.75 164.101562 79.582031 163.304688 79.464844 C 162.507812 79.347656 161.710938 79.277344 160.90625 79.253906 C 160.105469 79.234375 159.300781 79.257812 158.5 79.332031 C 157.699219 79.40625 156.902344 79.523438 156.109375 79.691406 C 155.316406 79.863281 154.535156 80.074219 153.757812 80.335938 C 152.980469 80.597656 152.21875 80.90625 151.464844 81.257812 C 150.714844 81.609375 149.976562 82.003906 149.257812 82.445312 C 148.535156 82.882812 147.835938 83.363281 147.152344 83.886719 C 146.46875 84.410156 145.808594 84.972656 145.171875 85.570312 C 144.535156 86.171875 143.921875 86.808594 143.335938 87.480469 C 142.75 88.15625 142.191406 88.859375 141.660156 89.597656 C 141.128906 90.335938 140.628906 91.105469 140.164062 91.902344 C 139.695312 92.699219 139.257812 93.523438 138.855469 94.371094 C 138.453125 95.21875 138.085938 96.089844 137.753906 96.980469 C 137.421875 97.871094 137.125 98.78125 136.867188 99.707031 C 136.609375 100.632812 136.386719 101.570312 136.203125 102.519531 C 136.019531 103.472656 135.875 104.429688 135.769531 105.398438 C 135.664062 106.363281 135.597656 107.335938 135.570312 108.308594 C 135.542969 109.28125 135.554688 110.253906 135.605469 111.226562 C 135.660156 112.199219 135.75 113.164062 135.878906 114.121094 C 136.007812 115.082031 136.175781 116.03125 136.382812 116.96875 C 136.589844 117.90625 136.835938 118.832031 137.117188 119.738281 C 137.398438 120.648438 137.71875 121.535156 138.070312 122.40625 C 138.425781 123.277344 138.816406 124.121094 139.238281 124.945312 C 139.660156 125.765625 140.117188 126.5625 140.605469 127.328125 C 141.09375 128.09375 141.613281 128.832031 142.160156 129.535156 C 142.707031 130.238281 143.285156 130.910156 143.886719 131.542969 C 144.488281 132.179688 145.117188 132.777344 145.769531 133.335938 C 146.421875 133.894531 147.09375 134.414062 147.789062 134.894531 C 148.484375 135.375 149.199219 135.808594 149.929688 136.203125 C 150.660156 136.597656 151.40625 136.945312 152.167969 137.25 C 152.925781 137.554688 153.695312 137.8125 154.480469 138.023438 C 155.261719 138.234375 156.050781 138.398438 156.847656 138.519531 C 157.640625 138.636719 158.441406 138.707031 159.242188 138.726562 Z M 82.917969 138.554688 C 83.703125 138.570312 84.488281 138.535156 85.269531 138.457031 C 86.054688 138.375 86.835938 138.25 87.609375 138.074219 C 88.382812 137.898438 89.148438 137.679688 89.90625 137.414062 C 90.664062 137.144531 91.410156 136.835938 92.140625 136.476562 C 92.875 136.121094 93.59375 135.71875 94.292969 135.277344 C 94.996094 134.832031 95.679688 134.347656 96.34375 133.824219 C 97.007812 133.296875 97.648438 132.734375 98.265625 132.128906 C 98.886719 131.527344 99.480469 130.886719 100.046875 130.214844 C 100.617188 129.539062 101.160156 128.832031 101.671875 128.09375 C 102.183594 127.351562 102.667969 126.585938 103.117188 125.785156 C 103.570312 124.988281 103.988281 124.167969 104.375 123.320312 C 104.765625 122.472656 105.117188 121.605469 105.433594 120.714844 C 105.753906 119.824219 106.035156 118.917969 106.28125 117.996094 C 106.527344 117.074219 106.734375 116.136719 106.90625 115.191406 C 107.078125 114.242188 107.210938 113.289062 107.308594 112.324219 C 107.402344 111.363281 107.460938 110.394531 107.476562 109.425781 C 107.496094 108.457031 107.476562 107.492188 107.417969 106.523438 C 107.359375 105.558594 107.261719 104.597656 107.128906 103.644531 C 106.992188 102.691406 106.820312 101.75 106.609375 100.820312 C 106.398438 99.886719 106.152344 98.96875 105.871094 98.070312 C 105.585938 97.167969 105.265625 96.285156 104.914062 95.425781 C 104.558594 94.5625 104.171875 93.726562 103.75 92.910156 C 103.328125 92.097656 102.878906 91.3125 102.394531 90.554688 C 101.910156 89.792969 101.394531 89.066406 100.851562 88.371094 C 100.3125 87.675781 99.742188 87.015625 99.144531 86.386719 C 98.550781 85.761719 97.929688 85.171875 97.289062 84.621094 C 96.644531 84.070312 95.980469 83.558594 95.296875 83.089844 C 94.613281 82.621094 93.910156 82.191406 93.191406 81.808594 C 92.472656 81.421875 91.742188 81.082031 90.996094 80.789062 C 90.25 80.492188 89.492188 80.242188 88.722656 80.039062 C 87.957031 79.835938 87.183594 79.675781 86.402344 79.566406 C 85.625 79.457031 84.839844 79.394531 84.054688 79.378906 C 83.269531 79.363281 82.484375 79.398438 81.699219 79.476562 C 80.917969 79.558594 80.136719 79.683594 79.363281 79.859375 C 78.589844 80.03125 77.824219 80.253906 77.066406 80.519531 C 76.308594 80.789062 75.5625 81.097656 74.828125 81.457031 C 74.097656 81.8125 73.378906 82.214844 72.675781 82.65625 C 71.976562 83.101562 71.292969 83.585938 70.628906 84.109375 C 69.964844 84.636719 69.324219 85.199219 68.703125 85.804688 C 68.085938 86.40625 67.492188 87.046875 66.921875 87.71875 C 66.355469 88.394531 65.8125 89.101562 65.300781 89.839844 C 64.789062 90.582031 64.304688 91.347656 63.851562 92.148438 C 63.402344 92.945312 62.980469 93.765625 62.59375 94.613281 C 62.207031 95.460938 61.855469 96.328125 61.539062 97.21875 C 61.21875 98.109375 60.9375 99.015625 60.691406 99.9375 C 60.445312 100.859375 60.238281 101.796875 60.066406 102.742188 C 59.894531 103.691406 59.761719 104.644531 59.664062 105.609375 C 59.570312 106.570312 59.511719 107.539062 59.492188 108.507812 C 59.476562 109.476562 59.496094 110.441406 59.554688 111.410156 C 59.613281 112.375 59.707031 113.335938 59.84375 114.289062 C 59.980469 115.242188 60.152344 116.183594 60.363281 117.113281 C 60.570312 118.046875 60.820312 118.964844 61.101562 119.863281 C 61.386719 120.765625 61.703125 121.644531 62.058594 122.507812 C 62.414062 123.371094 62.800781 124.207031 63.222656 125.023438 C 63.640625 125.835938 64.09375 126.621094 64.578125 127.378906 C 65.0625 128.140625 65.574219 128.867188 66.117188 129.5625 C 66.660156 130.257812 67.230469 130.917969 67.824219 131.546875 C 68.421875 132.171875 69.039062 132.761719 69.683594 133.3125 C 70.328125 133.863281 70.988281 134.371094 71.675781 134.84375 C 72.359375 135.3125 73.058594 135.742188 73.777344 136.125 C 74.496094 136.511719 75.230469 136.851562 75.976562 137.144531 C 76.722656 137.441406 77.480469 137.691406 78.246094 137.894531 C 79.015625 138.097656 79.789062 138.253906 80.566406 138.367188 C 81.347656 138.476562 82.132812 138.539062 82.917969 138.554688 Z M 82.917969 138.554688 "/></g></g></svg>