<svg width="180" height="61" viewBox="0 0 180 61" fill="none" xmlns="http://www.w3.org/2000/svg">
<path d="M55.88 1.50398C51.752 3.32798 49.544 6.20798 48.968 10.432C48.392 14.848 50.408 17.92 56.84 21.952C63.08 25.792 63.752 28.96 58.376 28.96C56.456 28.96 54.632 27.808 52.136 25.12C48.488 21.088 47.912 20.896 46.184 22.048C44.744 23.008 41.672 32.512 42.44 33.76C43.304 35.2 45.896 34.912 47.912 33.088C49.544 31.648 49.928 31.648 53.384 33.28C59.048 35.776 67.016 34.912 70.76 31.36C74.024 28.288 75.368 23.2 73.832 19.84C73.256 18.592 70.184 15.808 66.92 13.6C60.68 9.37599 59.624 6.59198 64.04 6.11198C65.768 5.91998 67.4 6.78398 69.8 9.27998C74.408 14.08 76.04 13.696 77.864 7.45598C78.728 4.57598 79.4 2.07998 79.4 1.79198C79.4 0.447983 75.944 0.255985 74.024 1.59998C72.104 2.84798 71.432 2.84798 67.784 1.59998C62.888 -0.128017 59.72 -0.128017 55.88 1.50398Z" fill="#141414"/>
<path d="M16.616 7.35998C10.664 9.47198 8.16797 11.872 4.61597 18.688C0.487974 26.656 -0.472026 36.16 2.02397 44.608C4.71197 53.92 14.792 62.464 16.328 56.8C17 54.208 19.88 54.4 25.832 57.376C34.664 61.888 41.96 60.448 41.96 54.304C41.96 52.096 42.92 51.712 50.6 50.752C52.424 50.464 53 47.488 51.464 45.664C50.888 44.896 48.488 43.84 46.184 43.264C43.88 42.688 40.904 41.056 39.464 39.616C37.064 37.216 36.968 36.928 37.64 28.48C38.024 22.816 37.928 18.88 37.16 16.96C35.624 12.736 30.536 7.93598 26.6 6.87998C22.28 5.63198 21.128 5.72798 16.616 7.35998ZM11.624 18.976C12.488 19.744 13.16 21.28 13.16 22.24C13.16 23.968 10.76 27.04 9.41597 27.04C7.97597 27.04 6.43997 24.64 6.43997 22.24C6.43997 19.84 7.97597 17.44 9.41597 17.44C9.79997 17.44 10.856 18.112 11.624 18.976ZM24.008 19.456C25.256 21.472 24.2 25.696 22.184 26.464C19.976 27.328 17.96 25.312 17.96 22.336C17.96 17.824 21.8 16 24.008 19.456Z" fill="#141414"/>
<path d="M82.568 8.79998C80.168 9.75998 79.784 10.72 81.32 12.256C81.992 12.928 81.704 15.232 80.36 19.456C77.48 28.672 77.768 31.456 81.992 33.664C85.064 35.2 89.096 35.008 92.456 32.896C95.336 31.168 95.432 31.168 96.488 32.896C98.312 35.776 105.704 35.392 108.776 32.32C111.08 30.016 111.176 27.232 108.968 28.576C107.816 29.344 108.008 27.808 110.696 18.112C112.04 13.312 112.232 11.2 111.464 9.95198C110.216 8.03198 103.976 7.26398 100.232 8.70398C98.12 9.56798 97.832 10.048 98.216 12.832C98.888 16.96 95.624 26.464 93.512 26.848C91.496 27.232 91.4 24.832 93.128 19.744C95.624 12.64 95.816 10.912 94.184 9.37598C92.552 7.64798 86.12 7.35998 82.568 8.79998Z" fill="#141414"/>
<path d="M119.048 8.8C116.648 9.76 116.264 10.72 117.8 12.256C118.952 13.408 112.04 37.312 109.544 41.152C108.776 42.304 108.2 43.552 108.2 43.84C108.2 44.512 124.04 44.416 124.808 43.648C125.192 43.36 125 42.496 124.424 41.824C123.656 40.864 123.656 39.616 124.424 37.408C125.48 34.24 125.48 34.24 130.952 34.528C135.464 34.816 137.096 34.432 139.88 32.608C147.08 27.808 150.056 15.04 145.16 10.24C142.28 7.264 137.288 7.072 133.928 9.664C131.624 11.488 131.624 11.488 130.472 9.664C129.224 7.648 123.08 7.168 119.048 8.8ZM134.12 17.152C134.12 23.488 129.896 31.936 127.496 30.4C126.536 29.92 129.896 17.728 131.432 15.712C133.064 13.792 134.12 14.368 134.12 17.152Z" fill="#141414"/>
<path d="M154.376 8.89599C152.744 9.56799 152.36 10.24 152.84 11.488C153.896 13.888 153.8 14.368 151.4 22.24C150.248 26.176 148.424 30.304 147.464 31.456C146.408 32.512 145.928 33.76 146.312 34.048C146.6 34.432 150.728 34.72 155.432 34.72C163.88 34.72 165.608 33.952 162.824 31.168C162.152 30.496 162.44 28.096 163.976 23.104C165.128 19.168 166.376 15.616 166.76 15.232C167.144 14.752 168.392 15.52 169.448 16.864C171.848 19.936 176.744 20.32 178.28 17.536C181.832 10.912 175.112 4.95999 168.872 9.37599C166.952 10.72 166.568 10.72 165.224 9.37599C163.592 7.64799 158.024 7.45599 154.376 8.89599Z" fill="#141414"/>
<path d="M62.408 40.96C59.816 42.784 59.144 45.664 60.872 48.064C63.656 52.096 69.8 49.408 69.8 44.032C69.8 42.496 69.032 41.152 67.976 40.48C65.48 39.232 64.808 39.232 62.408 40.96Z" fill="#141414"/>
<path d="M76.712 41.728C74.12 44.416 74.024 46.432 76.328 48.448C78.632 50.56 81.608 50.464 83.528 48.352C85.64 46.048 85.544 43.072 83.432 41.152C81.032 38.944 79.112 39.136 76.712 41.728Z" fill="#141414"/>
<path d="M92.072 41.728C89.48 44.416 89.384 46.432 91.688 48.448C93.992 50.56 96.968 50.464 98.888 48.352C101 46.048 100.904 43.072 98.792 41.152C96.392 38.944 94.472 39.136 92.072 41.728Z" fill="#141414"/>
</svg>
