<?xml version="1.0" standalone="no"?>
<!DOCTYPE svg PUBLIC "-//W3C//DTD SVG 20010904//EN"
 "http://www.w3.org/TR/2001/REC-SVG-20010904/DTD/svg10.dtd">
<svg version="1.0" xmlns="http://www.w3.org/2000/svg"
 width="500.000000pt" height="500.000000pt" viewBox="0 0 500.000000 500.000000"
 preserveAspectRatio="xMidYMid meet">

<g transform="translate(0.000000,500.000000) scale(0.100000,-0.100000)"
fill="#000000" stroke="none">
<path d="M2155 2776 c-43 -19 -66 -49 -72 -93 -6 -46 15 -78 82 -120 65 -40
72 -73 16 -73 -20 0 -39 12 -65 40 -38 42 -44 44 -62 32 -15 -10 -47 -109 -39
-122 9 -15 36 -12 57 7 17 15 21 15 57 -2 59 -26 142 -17 181 20 34 32 48 85
32 120 -6 13 -38 42 -72 65 -65 44 -76 73 -30 78 18 2 35 -7 60 -33 48 -50 65
-46 84 19 9 30 16 56 16 59 0 14 -36 16 -56 2 -20 -13 -27 -13 -65 0 -51 18
-84 18 -124 1z"/>
<path d="M1746 2715 c-62 -22 -88 -47 -125 -118 -43 -83 -53 -182 -27 -270 28
-97 133 -186 149 -127 7 27 37 25 99 -6 92 -47 168 -32 168 32 0 23 10 27 90
37 19 3 25 34 9 53 -6 8 -31 19 -55 25 -24 6 -55 23 -70 38 -25 25 -26 28 -19
116 4 59 3 100 -5 120 -16 44 -69 94 -110 105 -45 13 -57 12 -104 -5z m-52
-121 c9 -8 16 -24 16 -34 0 -18 -25 -50 -39 -50 -15 0 -31 25 -31 50 0 25 16
50 31 50 4 0 15 -7 23 -16z m129 -5 c13 -21 2 -65 -19 -73 -23 -9 -44 12 -44
43 0 47 40 66 63 30z"/>
<path d="M2433 2700 c-25 -10 -29 -20 -13 -36 7 -7 4 -31 -10 -75 -30 -96 -27
-125 17 -148 32 -16 74 -14 109 8 30 18 31 18 42 0 19 -30 96 -26 128 6 24 24
25 53 2 39 -12 -8 -10 8 18 109 14 50 16 72 8 85 -13 20 -78 28 -117 13 -22
-9 -25 -14 -21 -43 7 -43 -27 -142 -49 -146 -21 -4 -22 21 -4 74 26 74 28 92
11 108 -17 18 -84 21 -121 6z"/>
<path d="M2813 2700 c-25 -10 -29 -20 -13 -36 12 -12 -60 -261 -86 -301 -8
-12 -14 -25 -14 -28 0 -7 165 -6 173 2 4 3 2 12 -4 19 -8 10 -8 23 0 46 11 33
11 33 68 30 47 -3 64 1 93 20 75 50 106 183 55 233 -30 31 -82 33 -117 6 -24
-19 -24 -19 -36 0 -13 21 -77 26 -119 9z m157 -87 c0 -66 -44 -154 -69 -138
-10 5 25 132 41 153 17 20 28 14 28 -15z"/>
<path d="M3181 2699 c-17 -7 -21 -14 -16 -27 11 -25 10 -30 -15 -112 -12 -41
-31 -84 -41 -96 -11 -11 -16 -24 -12 -27 3 -4 46 -7 95 -7 88 0 106 8 77 37
-7 7 -4 32 12 84 12 41 25 78 29 82 4 5 17 -3 28 -17 25 -32 76 -36 92 -7 37
69 -33 131 -98 85 -20 -14 -24 -14 -38 0 -17 18 -75 20 -113 5z"/>
<path d="M2223 2365 c-27 -19 -34 -49 -16 -74 29 -42 93 -14 93 42 0 16 -8 30
-19 37 -26 13 -33 13 -58 -5z"/>
<path d="M2372 2357 c-27 -28 -28 -49 -4 -70 24 -22 55 -21 75 1 22 24 21 55
-1 75 -25 23 -45 21 -70 -6z"/>
<path d="M2532 2357 c-27 -28 -28 -49 -4 -70 24 -22 55 -21 75 1 22 24 21 55
-1 75 -25 23 -45 21 -70 -6z"/>
</g>
</svg>
