<svg xmlns="http://www.w3.org/2000/svg" xmlns:xlink="http://www.w3.org/1999/xlink" width="500" zoomAndPan="magnify" viewBox="0 0 375 374.999991" height="500" preserveAspectRatio="xMidYMid meet" version="1.2"><g id="5b8577f929"><path style=" stroke:none;fill-rule:nonzero;fill:#ffffff;fill-opacity:1;" d="M 116.417969 127.089844 C 107.820312 130.890625 103.21875 136.890625 102.019531 145.691406 C 100.820312 154.890625 105.019531 161.289062 118.417969 169.691406 C 131.417969 177.6875 132.820312 184.289062 121.621094 184.289062 C 117.621094 184.289062 113.820312 181.890625 108.621094 176.289062 C 101.019531 167.890625 99.820312 167.488281 96.21875 169.890625 C 93.21875 171.890625 86.820312 191.6875 88.421875 194.289062 C 90.21875 197.289062 95.621094 196.6875 99.820312 192.890625 C 103.21875 189.890625 104.019531 189.890625 111.21875 193.289062 C 123.019531 198.488281 139.617188 196.6875 147.417969 189.289062 C 154.21875 182.890625 157.019531 172.289062 153.816406 165.289062 C 152.617188 162.691406 146.21875 156.890625 139.417969 152.289062 C 126.417969 143.492188 124.21875 137.691406 133.417969 136.691406 C 137.019531 136.292969 140.417969 138.089844 145.417969 143.289062 C 155.019531 153.289062 158.417969 152.492188 162.21875 139.492188 C 164.019531 133.492188 165.417969 128.292969 165.417969 127.691406 C 165.417969 124.890625 158.21875 124.492188 154.21875 127.292969 C 150.21875 129.890625 148.816406 129.890625 141.21875 127.292969 C 131.019531 123.691406 124.417969 123.691406 116.417969 127.089844 Z M 116.417969 127.089844 "/><path style=" stroke:none;fill-rule:nonzero;fill:#ffffff;fill-opacity:1;" d="M 34.621094 139.289062 C 22.222656 143.691406 17.023438 148.691406 9.625 162.890625 C 1.023438 179.488281 -0.976562 199.289062 4.222656 216.886719 C 9.824219 236.285156 30.824219 254.085938 34.023438 242.285156 C 35.421875 236.886719 41.421875 237.285156 53.820312 243.488281 C 72.222656 252.886719 87.421875 249.886719 87.421875 237.085938 C 87.421875 232.488281 89.421875 231.6875 105.421875 229.6875 C 109.21875 229.085938 110.417969 222.886719 107.21875 219.085938 C 106.019531 217.488281 101.019531 215.289062 96.21875 214.089844 C 91.421875 212.886719 85.222656 209.488281 82.222656 206.488281 C 77.222656 201.488281 77.019531 200.886719 78.421875 183.289062 C 79.222656 171.488281 79.019531 163.289062 77.421875 159.289062 C 74.222656 150.492188 63.621094 140.492188 55.421875 138.292969 C 46.421875 135.691406 44.023438 135.890625 34.621094 139.289062 Z M 24.222656 163.488281 C 26.023438 165.089844 27.421875 168.289062 27.421875 170.289062 C 27.421875 173.890625 22.421875 180.289062 19.625 180.289062 C 16.625 180.289062 13.421875 175.289062 13.421875 170.289062 C 13.421875 165.289062 16.625 160.289062 19.625 160.289062 C 20.421875 160.289062 22.625 161.691406 24.222656 163.488281 Z M 50.023438 164.488281 C 52.621094 168.691406 50.421875 177.488281 46.222656 179.089844 C 41.621094 180.890625 37.421875 176.691406 37.421875 170.488281 C 37.421875 161.089844 45.421875 157.289062 50.023438 164.488281 Z M 50.023438 164.488281 "/><path style=" stroke:none;fill-rule:nonzero;fill:#ffffff;fill-opacity:1;" d="M 172.015625 142.289062 C 167.015625 144.289062 166.21875 146.289062 169.417969 149.492188 C 170.816406 150.890625 170.21875 155.691406 167.417969 164.488281 C 161.417969 183.6875 162.019531 189.488281 170.816406 194.089844 C 177.21875 197.289062 185.617188 196.886719 192.617188 192.488281 C 198.617188 188.890625 198.816406 188.890625 201.015625 192.488281 C 204.816406 198.488281 220.214844 197.6875 226.613281 191.289062 C 231.414062 186.488281 231.613281 180.6875 227.015625 183.488281 C 224.613281 185.089844 225.015625 181.890625 230.613281 161.691406 C 233.414062 151.691406 233.816406 147.289062 232.214844 144.691406 C 229.613281 140.691406 216.617188 139.089844 208.816406 142.089844 C 204.414062 143.890625 203.816406 144.890625 204.617188 150.691406 C 206.015625 159.289062 199.214844 179.089844 194.816406 179.890625 C 190.617188 180.6875 190.417969 175.691406 194.015625 165.089844 C 199.214844 150.289062 199.617188 146.691406 196.214844 143.492188 C 192.816406 139.890625 179.417969 139.289062 172.015625 142.289062 Z M 172.015625 142.289062 "/><path style=" stroke:none;fill-rule:nonzero;fill:#ffffff;fill-opacity:1;" d="M 248.015625 142.289062 C 243.015625 144.289062 242.214844 146.289062 245.414062 149.492188 C 247.8125 151.890625 233.414062 201.6875 228.214844 209.6875 C 226.613281 212.089844 225.414062 214.6875 225.414062 215.289062 C 225.414062 216.6875 258.414062 216.488281 260.015625 214.886719 C 260.8125 214.289062 260.414062 212.488281 259.214844 211.089844 C 257.613281 209.089844 257.613281 206.488281 259.214844 201.886719 C 261.414062 195.289062 261.414062 195.289062 272.8125 195.890625 C 282.210938 196.488281 285.613281 195.6875 291.414062 191.890625 C 306.410156 181.890625 312.613281 155.289062 302.410156 145.289062 C 296.414062 139.089844 286.011719 138.691406 279.011719 144.089844 C 274.214844 147.890625 274.214844 147.890625 271.8125 144.089844 C 269.214844 139.890625 256.414062 138.890625 248.015625 142.289062 Z M 279.414062 159.691406 C 279.414062 172.890625 270.613281 190.488281 265.613281 187.289062 C 263.613281 186.289062 270.613281 160.890625 273.8125 156.691406 C 277.214844 152.691406 279.414062 153.890625 279.414062 159.691406 Z M 279.414062 159.691406 "/><path style=" stroke:none;fill-rule:nonzero;fill:#ffffff;fill-opacity:1;" d="M 321.609375 142.492188 C 318.210938 143.890625 317.410156 145.289062 318.410156 147.890625 C 320.609375 152.890625 320.410156 153.890625 315.410156 170.289062 C 313.011719 178.488281 309.210938 187.089844 307.210938 189.488281 C 305.011719 191.6875 304.011719 194.289062 304.8125 194.890625 C 305.410156 195.6875 314.011719 196.289062 323.8125 196.289062 C 341.410156 196.289062 345.011719 194.6875 339.210938 188.890625 C 337.808594 187.488281 338.410156 182.488281 341.609375 172.089844 C 344.011719 163.890625 346.609375 156.492188 347.410156 155.691406 C 348.210938 154.691406 350.808594 156.289062 353.011719 159.089844 C 358.007812 165.488281 368.210938 166.289062 371.410156 160.488281 C 378.808594 146.691406 364.808594 134.292969 351.808594 143.492188 C 347.808594 146.289062 347.011719 146.289062 344.210938 143.492188 C 340.808594 139.890625 329.210938 139.492188 321.609375 142.492188 Z M 321.609375 142.492188 "/><path style=" stroke:none;fill-rule:nonzero;fill:#ffffff;fill-opacity:1;" d="M 130.019531 209.289062 C 124.621094 213.089844 123.21875 219.085938 126.820312 224.085938 C 132.617188 232.488281 145.417969 226.886719 145.417969 215.6875 C 145.417969 212.488281 143.820312 209.6875 141.617188 208.289062 C 136.417969 205.6875 135.019531 205.6875 130.019531 209.289062 Z M 130.019531 209.289062 "/><path style=" stroke:none;fill-rule:nonzero;fill:#ffffff;fill-opacity:1;" d="M 159.816406 210.886719 C 154.417969 216.488281 154.21875 220.6875 159.019531 224.886719 C 163.816406 229.289062 170.015625 229.085938 174.015625 224.6875 C 178.417969 219.886719 178.21875 213.6875 173.816406 209.6875 C 168.816406 205.089844 164.816406 205.488281 159.816406 210.886719 Z M 159.816406 210.886719 "/><path style=" stroke:none;fill-rule:nonzero;fill:#ffffff;fill-opacity:1;" d="M 191.816406 210.886719 C 186.417969 216.488281 186.214844 220.6875 191.015625 224.886719 C 195.816406 229.289062 202.015625 229.085938 206.015625 224.6875 C 210.414062 219.886719 210.214844 213.6875 205.816406 209.6875 C 200.816406 205.089844 196.816406 205.488281 191.816406 210.886719 Z M 191.816406 210.886719 "/></g></svg>